<svg xmlns="http://www.w3.org/2000/svg" width="2124.192" height="1333.166" xmlns:v="https://vecta.io/nano"><defs><clipPath id="A"><path fill="none" d="M581.014 178.427h31.566v22.804h-31.566z"/></clipPath></defs><path d="M552.642 38.843c-28.328 16.825-79.428 55.8-124.005 113.914-33.165 43.245-45.036 70.963-75.828 77.937-22.57 5.112-48-4.144-82.863-24.736C195.333 161.9 107.683 191.498 44.248 308.8s-39.5 228.392 77.583 360.007c85.692 96.32-29.545 97.375-96.163 264.297s27.335 354.178 336.464 351.95l777.498 2.045c244.398 2.232 508.08 43.23 735.27-72.18 82.1-41.706 154.692-106.028 194.985-188.83 53.2-109.343 35.433-246.727-34.875-345.117-46.866-65.585-114.33-46.697-170.563-89.86-58.697-45.056-94.005-93.966-10.076-174.153s148.178-134.214 105.748-240.455C1899.245 24.092 1751.52 4.425 1589.226 69.03S1231.11 230.14 1086.5 188.11C938.545 145.107 924.054 29.014 743.17 9.227c-40.218-4.4-118.786-12.994-190.53 29.616z" fill="#54d9df"/><path d="M579.352 92.262c-73.88 42.814-124.305 109.074-124.305 109.074-30.042 39.476-42.213 67.738-72.602 74.62-21.6 4.895-45.948-3.968-79.338-23.684-71.44-42.183-155.36-13.844-216.096 98.477s12.622 215.495 111.236 352.33-65.242 85.593-129.026 245.414 26.172 339.1 322.157 336.977l546.656.525 181.58-1.058c121.304-1.086 239.32 16.543 360.554.263 125.01-16.787 246.72-55.736 359.786-111.353 59.894-29.463 118.685-64.525 161.885-115.408 67.4-79.387 68.4-172.855 32.75-266.327-61.536-161.335-148.616-127.924-204.817-171.063s-90.005-89.968-9.647-166.743 141.873-128.505 101.25-230.225C1863.1 78.145 1721.65 59.315 1566.26 121.172s-358.874 165.676-488.435 102.4C953.016 162.615 938.138 83.172 779.33 62.43c-34.844-4.552-121.186-15.83-199.978 29.833z" fill="#d7f2f9"/><path d="M369.74 1158.54s-135.586-76.524-153.608-185.277 66.74-123.1 122.856-73.807 85.616 30.22 45.282-20.22-79.437-79.022-54.157-150.862 21.825-97.67-19.9-140.527-96.818-104.905-6.537-163.387 214.94-11.703 226.214 99.727 1.17 127.314 45.62 155.276 36.445 48.13 40.222 74.645 54.202 16.347 41.516-18.566-101.873-97.732-72.606-150.468 111.643-80.432 162.446 2.342-3.57 145.494 10.533 176.843 34.193-29.896 76.805-7.273 8.562 62.716-16.9 91.023-62.148 76.09-9.407 84.548 88-27.973 84.23 53.218z" fill="#20c1b1"/><path d="M873.61 561.827a17.077 17.077 0 0 0-5.144-12.02 16.263 16.263 0 0 0-11.995-4.613l-337.56 13.863a10.773 10.773 0 0 0-10.194 11.129l17.136 739.17 341.32-4.267a16.293 16.293 0 0 0 11.604-5.1 17.1 17.1 0 0 0 4.675-12.014z" fill="#c974c9"/><path fill="#fff" d="M600.822 677.034l-49.878-.016-2.482-73.852h50.198l2.162 73.868zm77.726-.197l-47.45-.023-1.968-73.648h47.753l1.665 73.67zm79.454-.2l-49.34-.018-1.473-73.452h49.652l1.16 73.47zm79.02-.2l-49.07-.018-.97-73.25h49.378l.66 73.27zm-232.678 120.74l-49.357.33-2.43-72.188 49.67-.208 2.118 72.067zm76.918-.512l-46.957.313-1.928-71.994 47.254-.198 1.63 71.88zm78.63-.524l-48.828.325-1.443-71.805 49.135-.206 1.136 71.686zm78.206-.52l-48.565.323-.95-71.612 48.867-.204.648 71.493zM607.792 914.58l-48.846.524-2.38-70.716 49.153-.407 2.074 70.6zm76.126-.815l-46.474.498-1.888-70.528 46.764-.387 1.598 70.417zm77.826-.833l-48.33.517L712 843.103l48.63-.403 1.114 70.233zm77.408-.83l-48.07.514-.93-70.162 48.367-.4.634 70.048zm-227.98 117.512l-48.346.71-2.333-69.286 48.647-.598 2.032 69.175zm75.35-1.106l-46 .675-1.85-69.107 46.285-.57 1.566 69zm77.036-1.13l-47.84.702-1.386-68.933 48.134-.592 1.09 68.823zm76.627-1.124l-47.585.698-.913-68.755 47.877-.59.62 68.646zm-225.7 116.093l-47.856.888-2.286-67.9 48.15-.78 1.992 67.793zm74.59-1.384l-45.536.845-1.814-67.73 45.816-.743 1.534 67.627zm76.263-1.416l-47.36.88-1.358-67.562 47.648-.773 1.07 67.456zm75.862-1.408l-47.1.875-.895-67.392 47.396-.77.61 67.286zM617.73 1252.847l-47.375 1.06-2.24-66.556 47.664-.957 1.952 66.453zm73.845-1.652l-45.083 1.01-1.777-66.39 45.355-.9 1.505 66.292zm75.505-1.69l-46.9 1.05-1.33-66.23 47.172-.948 1.05 66.13zm75.11-1.68l-46.645 1.044-.877-66.068 46.925-.942.597 65.966z"/><path d="M580.952 750.212a14.757 14.757 0 0 0-4.706-10.52 15.319 15.319 0 0 0-10.935-4.095l-328.265 10.297a15.002 15.002 0 0 0-14.668 15.318l16.197 533.705a15.036 15.036 0 0 0 15.3 14.438l323.843-.987c4.04-.04 5.72-3.744 8.54-6.586a14.737 14.737 0 0 0 4.292-10.639z" fill="#f195eb"/><path fill="#fff" style="mix-blend-mode:overlay" d="M278.587 797.227l-.512-13.35 106.776-4.7.478 13.383-106.742 4.658zm1.436 37.406l-.51-13.326 106.68-4.604.476 13.358-106.645 4.572zm1.434 37.337l-.51-13.302 106.584-4.517.475 13.333-106.548 4.486zm1.43 37.267l-.5-13.277 106.487-4.432.475 13.308-106.452 4.4zm1.428 37.198l-.508-13.253 106.4-4.347.474 13.283-106.356 4.317zm2.85 74.187l-.507-13.203 106.2-4.177.472 13.234-106.164 4.146zm4.253 110.766l-.503-13.13 105.91-3.924.47 13.16-105.878 3.895zm-5.676-147.825l-.507-13.228 106.294-4.26.473 13.258-106.26 4.23zm2.843 74.05l-.505-13.18 106.102-4.092.472 13.21-106.07 4.062zm1.418 36.92l-.504-13.154 106.006-4.008.47 13.184-105.973 3.978zm2.828 73.64l-.503-13.106 105.816-3.84.47 13.135-105.782 3.81zm1.4 36.717l-.502-13.08 105.72-3.758.468 13.11-105.687 3.728zm1.407 36.65l-.5-13.057 105.627-3.674.467 13.087-105.593 3.644zm1.405 36.58l-.5-13.033 105.53-3.59.467 13.062-105.498 3.562zm120.802-486.972l-.467-13.39 107.388-4.717.432 13.423-107.353 4.685zm1.3 37.52l-.467-13.367 107.29-4.63.43 13.398-107.255 4.6zm1.307 37.448l-.465-13.342L527.2 848.23l.43 13.373-107.16 4.512zm1.306 37.38l-.465-13.317 107.095-4.457.43 13.347-107.06 4.427zm1.302 37.308l-.463-13.29 106.998-4.37.43 13.322-106.964 4.34zm2.6 74.4l-.462-13.243 106.803-4.2.427 13.273-106.768 4.17zm3.88 111.094l-.46-13.17 106.514-3.946.425 13.2-106.48 3.916zm-5.177-148.265l-.463-13.267 106.9-4.285.428 13.297-106.866 4.255zm2.593 74.27l-.46-13.218 106.707-4.115.426 13.248-106.672 4.085zm1.293 37.032l-.46-13.194 106.6-4.03.426 13.224-106.576 4zm2.58 73.856l-.46-13.144 106.418-3.863.424 13.174-106.383 3.833zm1.286 36.826l-.458-13.12 106.32-3.778.424 13.15-106.287 3.75zm1.283 36.757l-.456-13.096 106.225-3.695.422 13.126-106.19 3.665zm1.282 36.69l-.456-13.07 106.13-3.612.422 13.1-106.095 3.582z"/><path d="M1266.033 737.172c-.13-3.933-5.82-7.098-12.796-7.098H830.182c-7.07 0-14.576 3.263-14.576 7.25v556.904c0 2.976 2.988 5.83 6.724 7.932s9.245 3.277 14.522 3.27l427.688-.66a29.567 29.567 0 0 0 14.249-3.365c3.723-2.146 5.82-5.052 5.72-8.053z" fill="#b182eb"/><path fill="#fff" style="mix-blend-mode:overlay" d="M1023.078 769.54l-138.39-.27.052-9.767 138.236.246.103 9.79zm.38 35.974l-138.96-.358.053-9.847 138.803.334.105 9.87zm.382 36.27l-139.534-.446.052-9.93 139.377.423.105 9.952zm.386 36.574l-140.113-.538.053-10 139.954.512.106 10.036zm.39 36.877l-140.696-.63.054-10.094 140.535.604.107 10.12zm.788 74.684l-141.878-.817.055-10.264 141.714.79.11 10.3zm1.206 114.41l-143.686-1.112.055-10.527 143.52 1.084.11 10.555zm-1.602-151.91l-141.284-.723.054-10.178 141.123.697.107 10.204zm.794 75.314l-142.475-.914.055-10.35 142.31.888.11 10.377zm.403 38.135l-143.08-1.012.055-10.438 142.913.985.11 10.465zm.814 77.248l-144.3-1.213.056-10.617 144.132 1.185.112 10.645zm.413 39.122l-144.92-1.317.056-10.707 144.75 1.288.114 10.736zm.416 39.46l-145.543-1.42.057-10.8 145.372 1.392.114 10.83zm.42 39.8l-146.173-1.528.058-10.893 146 1.5.115 10.922zm176.252-491.606l-139.26-.272-.15-9.798 139.103.248.307 9.822zm1.13 36.09l-139.836-.36-.15-9.878 139.677.335.3 9.903zm1.14 36.388l-140.417-.45-.153-9.96 140.257.425.313 9.985zm1.148 36.692l-141.002-.54-.155-10.043 140.842.516.315 10.068zm1.158 36.998l-141.593-.633-.155-10.127 141.43.607.317 10.153zm2.346 74.93l-142.8-.823-.158-10.298 142.625.796.323 10.325zm3.593 114.797l-144.623-1.12-.162-10.563 144.453 1.09.332 10.59zm-4.77-152.42l-142.19-.727-.157-10.212 142.026.7.32 10.238zm2.365 75.565l-143.395-.92-.16-10.385 143.23.893.325 10.412zm1.198 38.264l-144.007-1.02-.16-10.473 143.838.99.33 10.5zm2.426 77.512l-145.244-1.22-.164-10.653 145.074 1.193.334 10.68zm1.23 39.257l-145.87-1.325-.166-10.745 145.7 1.297.337 10.773zm1.24 39.597l-146.504-1.43-.167-10.837 146.33 1.4.34 10.867zm1.25 39.94l-147.14-1.538-.168-10.93 146.967 1.508.342 10.96z"/><path d="M1060.864 41.827c-59.343-.468-119.2 8.943-172.16 30.916-123.277 51.15-227.9 186.493-186.957 324.737 13.3 44.91 6.313 94.454 51.052 113.97 24.206 10.56 90.126 16.845 115.2 8.524 66.618-22.118 110.405-82.652 74.175-149.78-11.603-21.498-26.62-41.136-36.64-63.415s-14.585-48.724-4.37-70.916c20.05-43.56 86.66-57.408 129.853-56.1 50.983 1.542 97.18 26.758 124.614 70.017 34.193 53.913 42.855 119.5 37.85 182.07-5.354 66.965-33.6 118.102-75.904 169.474-36.43 44.227-76.55 86.682-100.763 138.615-22.228 47.676-29.493 100.503-30.497 152.663-.194 10.11-50.47 105.38-50.254 134.487.03 4.11 57.02 17.734 61.133 17.78l104.603 1.17a8.34 8.34 0 0 0 8.444-8.226c1.592-141.606 45.148-276.61 155.408-371.715 40.12-34.605 83.327-62.785 114.523-106.463 44.464-62.255 66.4-123.522 60.07-200.354-5.782-70.172-28.888-140.382-74.63-194.827-49.16-58.517-121.115-95.06-195.898-110.83a551.748 551.748 0 0 0-108.846-11.797zm109.432 1162.954c0 65.117-36.094 122.726-101.2 122.726-14.067 0-61.9.13-74.418-4.39-45.394-16.4-45.557-51.273-45.557-102.323 0-65.117 21.988-129.158 87.105-129.158s134.08 48.028 134.08 113.144z" fill="#2e62ab"/><g fill="#279ed9"><path d="M1004.477 26.99c-59.342-.468-119.2 8.942-172.158 30.916-123.278 51.15-227.9 186.492-186.957 324.737 13.3 44.908 44.052 101.438 88.8 120.955 24.207 10.56 52.388 9.86 77.452 1.538 66.617-22.117 110.405-82.652 74.174-149.78-11.602-21.497-26.62-41.136-36.638-63.415s-14.585-48.724-4.37-70.916c20.05-43.56 86.66-57.407 129.854-56.1 50.983 1.542 97.178 26.758 124.614 70.017 34.193 53.914 42.855 119.5 37.85 182.072-5.354 66.964-33.59 118.102-75.903 169.473-36.43 44.228-76.55 86.682-100.763 138.615-22.23 47.677-29.493 100.504-30.497 152.663-.195 10.1 3.21 115.68 3.425 144.787a7.532 7.532 0 0 0 7.454 7.48l104.602 1.17a8.34 8.34 0 0 0 8.444-8.226c1.593-141.606 45.15-276.6 155.41-371.714 40.12-34.605 83.327-62.785 114.523-106.464 44.464-62.255 66.4-123.52 60.07-200.354-5.782-70.17-28.888-140.38-74.628-194.826-49.162-58.517-121.115-95.06-195.898-110.83a551.747 551.747 0 0 0-108.847-11.797z"/><circle cx="1010.628" cy="1205.956" r="117.904" transform="rotate(315 1010.628 1205.956)"/></g><path d="M684.4 368.545a.958.958 0 0 1-.935-.752c-8.24-37.206-9.45-95.476 31.596-161.78 40.083-64.748 96.306-108.072 167.11-128.768 75.72-22.134 165.646-17.4 267.275 14.1a.958.958 0 1 1-.567 1.832C1047.604 61.8 958.05 57.058 882.698 79.085c-70.335 20.56-126.19 63.604-166.017 127.938-40.706 65.755-39.52 123.496-31.355 160.356a.958.958 0 0 1-.729 1.143.946.946 0 0 1-.208.023zm24.8 60.025a.957.957 0 0 1-.775-.392c-.087-.12-8.8-12.17-16.684-32.776a.958.958 0 0 1 1.79-.685c7.775 20.348 16.356 32.213 16.44 32.33a.958.958 0 0 1-.773 1.524zm340.9 700.414a.951.951 0 0 1-.432-.104 85.463 85.463 0 0 0-39.02-9.295.959.959 0 0 1 0-1.917 87.355 87.355 0 0 1 39.887 9.503.958.958 0 0 1-.434 1.813zM961.8 1279.33a.953.953 0 0 1-.536-.164 88.315 88.315 0 0 1 7.623-151.027.958.958 0 1 1 .907 1.688 86.399 86.399 0 0 0-7.457 147.751.958.958 0 0 1-.537 1.753z" fill="#fff"/><path d="M1128.695 707.145c10.012 71.197 20.58 87.56 28.8 87.983 26.136 1.35 20.868-159.174 116.453-240.373 60.377-51.3 142.843-55.512 207.545-49.53l-90.566 324.81c-13.183 32.348-70.66 163.18-200.708 202.89-26.477 8.085-65.882 20.117-102.535 4.363-72.344-31.093-106.27-158.518-73.923-318.074 15.207-5.648 36.255-11.666 114.944-12.067z" fill="#d53578"/><g fill="#ffb061"><path d="M1151.74 429.495l-11.968 67.664c-19.227 82.76-21.057 151.742-11.077 209.986a912.364 912.364 0 0 0-114.944 12.067c10.4-84.167 66.408-223.933 66.408-223.933 33.78-48.758 37.802-17.027 71.58-65.784z"/><path d="M1014.92 286.916a44.634 44.634 0 0 1 35.288 15.834l85.368 101.153s15.538-3.174 16.993-32.927 33.06-33.336 33.06-33.336-4.556 41.496-13.234 102.9c-4.963 35.122-25.725 60.757-42.595 76.285l-49.385-16.998c-45.302-64.755-73.423-136.126-89.053-212.303z"/></g><g fill="#d53578"><path d="M1819.494 562.115c-5.7-1.493-44.572-41.667-50.418-42.78-95.834-18.266-335.037-82.69-495.138 35.42-.4 3.4-.653 6.133-.8 8.4a89.21 89.21 0 0 0-6.603 11.303 539.617 539.617 0 0 1-54.033 84.383 55.012 55.012 0 0 1 11.134 15.785c38.47 82.4 184.302 411.5 158.672 612.766a19.01 19.01 0 0 0 16.129 21.405c56.608 7.828 225.2 26.922 312.3-9.046a13.335 13.335 0 0 0 8.231-12.548c-.57-40.38 1.135-215.626 65.384-426.87a237.386 237.386 0 0 0 5.91-23.945l2.3 4.85z"/><path d="M1673.242 501.07c178.718 13.067 216.067 115.196 339.576 52.752l-21.87 191.253c-45.8 50.58-114.946 85.026-202.078 97.938z"/></g><path d="M1551.127 328.097c30.622 61.046 43.406 123.22 47.24 181.104-6.586 2.454-94.48 63.425-153.312 4.407 12.577-40.504 10.497-101.483 7.297-164.03z" fill="#ff9d45"/><path d="M1391.678 167.614c-1.683 2.724-45.607 209.87-45.607 209.87l118.8 22.566 70.8-190.147s-115.815-87.9-144.003-42.3z" fill="#ffb061"/><path d="M1490.325 226.808a17.402 17.402 0 0 1 2.69 15.075L1464 343.4a16.933 16.933 0 0 1-1.917 4.353c-4.686 7.488-21.52 30.127-44.213 11.538-19.342-15.843-37.336-30.137-53.465-33.697a17.358 17.358 0 0 0-20.636 13.522c-4.048 19.45-11.424 58.864-13.06 94.8a17.29 17.29 0 0 0 15.212 17.874c23.614 2.917 69.897 7.232 108.636 2.368a17.366 17.366 0 0 0 14.054-11c10.167-26.327 38.96-100.006 50.3-119.555 10.526-18.16 38.482-19.875 51.347-19.646a17.463 17.463 0 0 0 12.932-5.355c10.162-10.55 26.435-34.4-1.167-59.988a17.388 17.388 0 0 1-.925-24.204c11.143-12.53 21.345-33.175.1-56.48-21.508-23.6-47.455-19.267-64.114-12.542-7.37 2.976-16.18 1.054-21.007-5.26-2.147-2.81-5.44-4.8-10.487-4.498-9.518.6-17.657-6.076-18.3-15.6-1.12-16.314-8.807-35.834-37.203-42.803-52.08-12.78-80.93 38.543-81.832 75.578s56.348 47.68 89.355 43.167c24.245-3.315 43.964 18.828 52.725 30.816z" fill="#0a335f"/><g fill="#ffb061"><path d="M1501.11 362.128s11.055-65.578 37.47-70.34 53.65 15.52 29.394 53.04c-30.172 46.668-66.864 17.3-66.864 17.3zm43.567-235.928a60.842 60.842 0 0 0-15.124 1.418c-12.56 2.66-29.288 9.116-24.93 21.194 6.543 18.14 40.494 1.19 58.57 30.437 15.93 25.772 2.892 53.758 7.767 81.53 2.37 13.5 11.052 33.572 23.122 41.463 5.398 3.53 48.023 10.28 50.354 2.716l11.848-38.453c10.656-34.584-30.287-92.212-51.406-115.5-16.316-18-38.426-23.904-60.2-24.795z"/><path d="M1585.08 264.998l40.773 33.94c78.186 33.252 134.988 72.438 176.154 114.832 14.906-28.04 39.036-60.452 77.504-85.738-78.81-38.82-137.478-54.948-137.478-54.948-159.054-63.965-156.953-8.087-156.953-8.087z"/></g><path d="M1802.007 413.77c128.54 132.37 90.978 65.105 92 177.933.38 42.068 36.888 202.693 36.888 202.693 393.106-169.82 65.05-401.622-51.384-466.363-38.468 25.285-62.598 57.7-77.504 85.737z" fill="#d53578"/><path d="M474.668 160.67l251.944-4.62c5.77-.106 10.453 12.708 10.4 28.473l-1.06 380.296c-.045 15.855-4.852 28.507-10.65 28.03L476.095 572.38c-5.536-.455-9.958-12.748-10.03-27.882L464.398 189.3c-.073-15.673 4.535-28.515 10.27-28.62z" fill="#2d83fa"/><path d="M725.627 588.948l-249.274-22.284c-.954-.086-1.712-2.446-1.725-5.37L472.96 174.6a12.723 12.723 0 0 1 .528-3.94c.335-1.018.763-1.566 1.238-1.575l251.945-5.035c.482 0 .913.537 1.252 1.55a12.71 12.71 0 0 1 .536 3.94l-1.06 414c-.008 2.983-.803 5.408-1.772 5.408zm1.048-422.315l-252.023 4.794 1.663 392.77 249.3 22.647 1.05-420.212zM489.2 189.857c0 7.615 2.614 13.787 5.838 13.787h214.288c3.224 0 5.838-6.172 5.838-13.787s-2.614-13.786-5.838-13.786H495.04c-3.224 0-5.838 6.172-5.838 13.786zm5.756 29.884h85.798a5.34 5.34 0 0 1 5.5 5.166v66.534a5.352 5.352 0 0 1-5.653 5.164l-84.042-2.188a5.34 5.34 0 0 1-5.345-5.032l-1.756-64.346a5.33 5.33 0 0 1 5.498-5.298zm110.125 1.2h100.7c2.2 0 3.967 2.05 3.967 4.578s-1.776 4.578-3.967 4.578h-100.7c-2.2 0-3.967-2.05-3.967-4.578s1.776-4.578 3.967-4.578zm-3.967 24.178c0 2.524 1.773 4.57 3.96 4.57h100.723c2.187 0 3.96-2.046 3.96-4.57v-2.824c0-2.567-1.832-4.63-4.056-4.568l-100.72 2.823a4.316 4.316 0 0 0-3.864 4.567zm3.967 15.822h100.7c2.2 0 3.967 2.05 3.967 4.578s-1.776 4.578-3.967 4.578h-100.7c-2.2 0-3.967-2.05-3.967-4.578s1.776-4.578 3.967-4.578zm-3.967 24.178c0 2.524 1.773 4.57 3.96 4.57h100.723c2.187 0 3.96-2.046 3.96-4.57v-2.824c0-2.567-1.832-4.63-4.056-4.568l-100.72 2.823a4.316 4.316 0 0 0-3.864 4.567zm-103.55 25.822h204.152c4.442 0 8.042 2.05 8.042 4.578s-3.6 4.578-8.042 4.578H497.564c-4.44 0-8.042-2.05-8.042-4.578s3.6-4.578 8.042-4.578zm-8.042 24.178c0 2.524 3.594 4.57 8.028 4.57h204.18c4.434 0 8.028-2.046 8.028-4.57v-2.824c0-2.567-3.714-4.63-8.223-4.568l-204.18 2.825c-4.357.06-7.833 2.087-7.833 4.567zm8.042 15.475h204.152c4.442 0 8.042 2.05 8.042 4.577s-3.6 4.578-8.042 4.578H497.564c-4.44 0-8.042-2.05-8.042-4.578s3.6-4.577 8.042-4.577zm-8.042 24.177c0 2.524 3.594 4.57 8.028 4.57h204.18c4.434 0 8.028-2.046 8.028-4.57v-2.824c0-2.567-3.714-4.63-8.223-4.568l-204.18 2.825c-4.357.06-7.833 2.087-7.833 4.568zm5.068 16.17h128.646a4.841 4.841 0 0 1 5.068 4.578 4.841 4.841 0 0 1-5.068 4.578H494.6a4.842 4.842 0 0 1-5.068-4.578 4.842 4.842 0 0 1 5.068-4.578zm-5.068 24.178a4.833 4.833 0 0 0 5.059 4.57h128.665a4.832 4.832 0 0 0 5.058-4.57v-2.824a4.846 4.846 0 0 0-5.181-4.568l-128.665 2.825a4.818 4.818 0 0 0-4.936 4.567zm5.068 15.475h128.646a4.841 4.841 0 0 1 5.068 4.577 4.841 4.841 0 0 1-5.068 4.578H494.6a4.842 4.842 0 0 1-5.068-4.578 4.842 4.842 0 0 1 5.068-4.577zm-5.068 24.177a4.833 4.833 0 0 0 5.059 4.57h128.665a4.832 4.832 0 0 0 5.058-4.57v-2.824a4.846 4.846 0 0 0-5.181-4.568l-128.665 2.825a4.818 4.818 0 0 0-4.936 4.568zm152.2 12.613h70.943a4.665 4.665 0 0 1 4.547 4.775v61.5a4.658 4.658 0 0 1-4.673 4.774l-69.5-2.023a4.666 4.666 0 0 1-4.42-4.651l-1.453-59.478a4.672 4.672 0 0 1 4.546-4.897zM494.6 469.2h128.646a4.841 4.841 0 0 1 5.068 4.578 4.841 4.841 0 0 1-5.068 4.577H494.6a4.842 4.842 0 0 1-5.068-4.577 4.842 4.842 0 0 1 5.068-4.578zm-5.068 24.18a4.833 4.833 0 0 0 5.059 4.568h128.665a4.832 4.832 0 0 0 5.058-4.569v-2.824a4.846 4.846 0 0 0-5.181-4.568l-128.665 2.825a4.818 4.818 0 0 0-4.936 4.567zm5.068 15.473h128.646a4.841 4.841 0 0 1 5.068 4.578 4.841 4.841 0 0 1-5.068 4.578H494.6a4.842 4.842 0 0 1-5.068-4.578 4.842 4.842 0 0 1 5.068-4.578zm-5.068 24.178a4.833 4.833 0 0 0 5.059 4.57h128.665a4.832 4.832 0 0 0 5.058-4.57v-2.824a4.846 4.846 0 0 0-5.181-4.568l-128.665 2.825a4.818 4.818 0 0 0-4.936 4.567z" fill="#fff"/><g clip-path="url(#A)"><path d="M609.127 195.872a3.469 3.469 0 0 0-3.192-2.64h-.073a3.378 3.378 0 0 0-2.347 5.779 3.291 3.291 0 0 0 2.335 1.032l.12-.002a3.283 3.283 0 0 0 2.387-1.257 3.684 3.684 0 0 0 .77-2.912m-14.938 2.015a6.665 6.665 0 0 1-.844.303 7.64 7.64 0 0 1-2.17.384 4.613 4.613 0 0 1-1.076-.125 9.05 9.05 0 0 1-2.36-1.221 3.58 3.58 0 0 0 1.048 1.98 3.303 3.303 0 0 0 2.377.954 3.414 3.414 0 0 0 3.025-2.275" fill="#fff"/><g fill="#259def"><path d="M598.752 195.882l.072-1.87V194a28.997 28.997 0 0 0-.208-4.553 24.272 24.272 0 0 0-.63-3.107 8.717 8.717 0 0 1-1.902.77 9.816 9.816 0 0 1-3.573.24l-.06-.005a7.304 7.304 0 0 1-1.905-.42 42.192 42.192 0 0 0-2.109-.623l-.518-.155a9.958 9.958 0 0 0-3.892-.585 6.902 6.902 0 0 0-2.24.625 19.033 19.033 0 0 1 1.702 8.89 3.82 3.82 0 0 1 1.575-.102 4.523 4.523 0 0 1 1.936.9l.4.264a13.91 13.91 0 0 0 2.901 1.657 5.243 5.243 0 0 0 2.838-.265 5.502 5.502 0 0 0 1.463-.66 5.352 5.352 0 0 1 1.86-.758 10.531 10.531 0 0 1 2.289-.231m-7.236-.557a1.416 1.416 0 0 1-.495.213v.374a.457.457 0 0 1-.456.458.457.457 0 0 1-.457-.457v-.44a1.394 1.394 0 0 1-.647-.491 1.598 1.598 0 0 1-.143-1.446.457.457 0 0 1 .85.337.687.687 0 0 0 .036.577.624.624 0 0 0 .793.123c.273-.19.196-.787.013-1.083a1.546 1.546 0 0 0-.215-.245 2.38 2.38 0 0 0-.43-.354 4.248 4.248 0 0 1-.411-.31l-.01-.01a2.302 2.302 0 0 1-.705-.842 2.069 2.069 0 0 1-.118-1.244 2.614 2.614 0 0 1 .488-1.036 1.7 1.7 0 0 1 .416-.383v-.7a.457.457 0 0 1 .914 0v.556a1.57 1.57 0 0 1 .835.811 1.753 1.753 0 0 1 .002 1.442.457.457 0 1 1-.833-.376.838.838 0 0 0 .007-.671c-.086-.18-.23-.334-.318-.342-.057-.005-.17.05-.308.22a1.68 1.68 0 0 0-.309.657 1.147 1.147 0 0 0 .06.686 1.488 1.488 0 0 0 .465.52l.01.01a3.376 3.376 0 0 0 .33.246 3.25 3.25 0 0 1 .572.473 2.247 2.247 0 0 1 .335.4 1.77 1.77 0 0 1-.27 2.316"/><path d="M611.907 195.494l-.288-7.007a2.103 2.103 0 0 1-2.719-.575 1.996 1.996 0 0 1-.026-1.987l-2.405-.26-5.7-6.6-10.5-.13-5.256 6.275 3.32.706c3.1.785 4.093 1.387 5.78 1.307a7.622 7.622 0 0 0 3.843-1.333 24.269 24.269 0 0 1 .89 10.432l3.084.183a3.946 3.946 0 0 1 7.844-.497l2.144-.523"/></g><path d="M610.653 187.998a1.195 1.195 0 0 0 .578-.26 6.458 6.458 0 0 0-.01-.095 1.78 1.78 0 0 0-.24-.89.743.743 0 0 0-.135-.132 1.964 1.964 0 0 0-1.225-.229l-.045.002-.14.002a1.198 1.198 0 0 0 .258 1.304 1.277 1.277 0 0 0 .96.299" fill="#fff"/><g fill="#333"><path d="M591.452 192.6a3.25 3.25 0 0 0-.572-.474 3.378 3.378 0 0 1-.33-.247l-.01-.01a1.488 1.488 0 0 1-.464-.519 1.147 1.147 0 0 1-.061-.686 1.68 1.68 0 0 1 .31-.656c.136-.172.25-.227.307-.222.1.008.23.162.318.342a.838.838 0 0 1-.007.671.457.457 0 1 0 .833.376 1.753 1.753 0 0 0-.002-1.442 1.57 1.57 0 0 0-.835-.81v-.557a.457.457 0 0 0-.914 0v.7a1.701 1.701 0 0 0-.416.383 2.614 2.614 0 0 0-.488 1.036 2.069 2.069 0 0 0 .118 1.244 2.302 2.302 0 0 0 .705.843l.01.01a4.254 4.254 0 0 0 .411.309 2.38 2.38 0 0 1 .431.354 1.545 1.545 0 0 1 .215.245c.183.296.26.894-.013 1.083a.623.623 0 0 1-.793-.123.687.687 0 0 1-.036-.577.457.457 0 0 0-.85-.337 1.598 1.598 0 0 0 .143 1.446 1.394 1.394 0 0 0 .646.49v.44a.457.457 0 1 0 .914.001v-.375a1.416 1.416 0 0 0 .495-.213 1.77 1.77 0 0 0 .271-2.316 2.248 2.248 0 0 0-.335-.4m21.043-1.21a45.127 45.127 0 0 1-.03-.812v-.013a30.674 30.674 0 0 0-.031-.89l-.01-.175-.038-.57-.028-.388-.017-.28-.047-.6a8.662 8.662 0 0 0-.015-.142 2.685 2.685 0 0 0-.46-1.424 1.781 1.781 0 0 0-.312-.31 2.831 2.831 0 0 0-1.915-.46l-.045.002c-.73.02-1.48-.016-2.207-.05l-.367-.016-5.662-6.65a.533.533 0 0 0-.406-.187l-10.6.003a.533.533 0 0 0-.401.183l-5.515 6.325-.132.01a7.87 7.87 0 0 0-2.974.919.599.599 0 0 0-.224.76 16.358 16.358 0 0 1 1.663 8.984.533.533 0 0 0 .76.534 2.957 2.957 0 0 1 1.71-.307 3.395 3.395 0 0 1 1.419.68l.005.003a.533.533 0 0 0-.008.093 4.673 4.673 0 0 0 1.427 3.361 4.51 4.51 0 0 0 1.442.943 4.168 4.168 0 0 0 1.576.312l.135-.002a4.545 4.545 0 0 0 4.247-4.016 4.11 4.11 0 0 1 .987-.325 9.73 9.73 0 0 1 2.252-.19l2.763.08a4.541 4.541 0 0 0 1.301 2.977 4.357 4.357 0 0 0 3.1 1.356q.083 0 .166-.004a4.348 4.348 0 0 0 3.17-1.652 4.786 4.786 0 0 0 .888-1.727 4.694 4.694 0 0 0 .167-1.377 3.996 3.996 0 0 0 .495-.027l.01-.001a2.377 2.377 0 0 0 1.4-.489 1.287 1.287 0 0 0 .403-.863 11.057 11.057 0 0 0 .02-1.458l-.072-2.113m-1.883 3.865a2.945 2.945 0 0 1-.553.012 4.519 4.519 0 0 0-4.1-3.11 4.344 4.344 0 0 0-3.074 1.195 4.575 4.575 0 0 0-.987 1.328 4.403 4.403 0 0 0-.357 1.025l-2.08-.07a37.5 37.5 0 0 0 .066-1.742v-.012a27.372 27.372 0 0 0-.208-4.405 23.363 23.363 0 0 0-.827-3.715.533.533 0 0 0-.798-.29 7.426 7.426 0 0 1-2.117.942 8.453 8.453 0 0 1-3.036.192l-.058-.005a6.03 6.03 0 0 1-1.586-.347l-2.056-.594-.453-.134a13.281 13.281 0 0 0-2.591-.575l4.762-5.463 10.1-.003 4.874 5.723-.65-.036-2.003-.102-2.272-.1a.533.533 0 0 0-.044 1.066 350.585 350.585 0 0 1 4.241.199h.008a22.16 22.16 0 0 0 1.108.05l1.37.05 1.035.042a2.288 2.288 0 0 0-.013.884 2.182 2.182 0 0 0 .645 1.203 2.28 2.28 0 0 0 1.573.598 1.981 1.981 0 0 0 .272-.017 2.187 2.187 0 0 0 .512-.14l.008.108.037.547a26.328 26.328 0 0 1 .04 1.028v.014q.002.122.008.276a3.35 3.35 0 0 1-2.913-.83.533.533 0 0 0-.31-1.018 1.935 1.935 0 0 0-.867.508 2.314 2.314 0 0 0-.564.963.532.532 0 0 0 1.013.326 4.409 4.409 0 0 0 3 1.178 4.506 4.506 0 0 0 .684-.053l.05 1.576a10.904 10.904 0 0 1-.012 1.302c-.02.166-.045.2-.067.208a1.673 1.673 0 0 1-.801.216zm-4.642 4.777q-.06.002-.12.002a3.291 3.291 0 0 1-2.335-1.032 3.378 3.378 0 0 1 2.347-5.78l.073.001a3.469 3.469 0 0 1 3.192 2.64 3.684 3.684 0 0 1-.77 2.912 3.283 3.283 0 0 1-2.386 1.257m-17.183-.832a3.579 3.579 0 0 1-1.049-1.981 9.05 9.05 0 0 0 2.36 1.221 4.613 4.613 0 0 0 1.078.125 7.64 7.64 0 0 0 2.17-.384 6.66 6.66 0 0 0 .843-.303 3.414 3.414 0 0 1-3.025 2.275 3.303 3.303 0 0 1-2.377-.953m5.655-2.66a5.294 5.294 0 0 1-1.393.617 5.094 5.094 0 0 1-2.703.246 13.331 13.331 0 0 1-2.763-1.544 53.403 53.403 0 0 1-.382-.245 4.35 4.35 0 0 0-1.843-.84 3.713 3.713 0 0 0-1.5.095 17.415 17.415 0 0 0-1.621-8.287 6.683 6.683 0 0 1 2.133-.582 9.67 9.67 0 0 1 3.707.545l.493.145 2 .58a7.085 7.085 0 0 0 1.813.392l.057.005a9.544 9.544 0 0 0 3.403-.224 8.406 8.406 0 0 0 1.812-.718 22.207 22.207 0 0 1 .599 2.896 26.46 26.46 0 0 1 .198 4.244v.012a36.51 36.51 0 0 1-.068 1.742 10.237 10.237 0 0 0-2.18.216 5.156 5.156 0 0 0-1.771.705m14.992-10.153l.14-.002.046-.002a1.964 1.964 0 0 1 1.225.23.744.744 0 0 1 .135.13 1.78 1.78 0 0 1 .24.891l.01.096a1.195 1.195 0 0 1-.578.26 1.277 1.277 0 0 1-.96-.3 1.198 1.198 0 0 1-.258-1.303"/></g></g><path d="M560.123 318.234l263.8-2.366a9.27 9.27 0 0 1 9.353 9.323l-1.156 202.43a9.263 9.263 0 0 1-9.537 9.214L553.78 529.53c-9.237.386-4.218-162.226-2.84-202.35a9.265 9.265 0 0 1 9.182-8.945z" fill="#6cadfb"/><path d="M822.866 529.5h-.063l-264.576-7.302-.127-.715c-3.3-18.67-3.245-94.84.164-194.06a1.936 1.936 0 0 1 1.926-1.87l263.798-2.366a1.942 1.942 0 0 1 1.396.574 1.9 1.9 0 0 1 .564 1.38l-1.155 202.43a1.94 1.94 0 0 1-1.927 1.932zm-263.16-9.037l263.2 7.286a.193.193 0 0 0 .134-.19l1.155-202.43-.2-1.067.008.877-263.798 2.365a.185.185 0 0 0-.188.178c-3.364 97.883-3.478 173.255-.3 192.98zm6.064-169.135a9.27 9.27 0 0 0 9.27 9.27h226.34a9.27 9.27 0 1 0 0-18.54H575.042a9.27 9.27 0 0 0-9.27 9.27zm171.093 152.277a4.43 4.43 0 0 1-3.387-1.572l-5.983-7.108a52.037 52.037 0 0 1-13.043-.33l-6.333 6.803a4.436 4.436 0 0 1-5.038 1.025l-12.264-5.44a4.432 4.432 0 0 1-2.615-4.426l.796-9.26a52.147 52.147 0 0 1-8.996-9.45l-9.283.33a4.453 4.453 0 0 1-4.288-2.831l-4.823-12.525a4.425 4.425 0 0 1 1.282-4.979l7.103-5.98a52.094 52.094 0 0 1 .332-13.042l-6.803-6.335a4.429 4.429 0 0 1-1.03-5.035l5.445-12.266a4.4 4.4 0 0 1 4.431-2.614l9.254.795a52.095 52.095 0 0 1 9.45-8.995l-.33-9.283a4.429 4.429 0 0 1 2.836-4.29l12.52-4.823a4.429 4.429 0 0 1 4.982 1.288l5.976 7.1a51.82 51.82 0 0 1 13.044.33l6.334-6.803a4.432 4.432 0 0 1 5.035-1.03l12.266 5.445a4.43 4.43 0 0 1 2.614 4.424l-.795 9.262a52.113 52.113 0 0 1 8.996 9.45l9.284-.332a4.441 4.441 0 0 1 4.288 2.836l4.822 12.52a4.427 4.427 0 0 1-1.285 4.982l-7.1 5.977a52.096 52.096 0 0 1-.332 13.044l6.803 6.333a4.431 4.431 0 0 1 1.031 5.03l-5.447 12.27a4.443 4.443 0 0 1-4.415 2.617l-9.27-.796a52.125 52.125 0 0 1-9.45 8.995l.33 9.282a4.434 4.434 0 0 1-2.823 4.285l-12.532 4.827a4.433 4.433 0 0 1-1.589.294zm-6.47-16.124l7.26 8.62 9.08-3.497-.402-11.264 1.6-1.1a45.18 45.18 0 0 0 10.614-10.102l1.17-1.544 11.236.965 3.948-8.892-8.255-7.688.36-1.902a45.149 45.149 0 0 0 .372-14.648l-.265-1.918 8.623-7.258-3.498-9.08-11.263.403-1.1-1.6a45.189 45.189 0 0 0-10.103-10.615l-1.544-1.168.965-11.237-8.892-3.948-7.686 8.256-1.903-.362a44.988 44.988 0 0 0-14.647-.372l-1.918.266-7.26-8.623-9.078 3.497.4 11.264-1.6 1.1a45.139 45.139 0 0 0-10.613 10.102l-1.168 1.543-11.238-.964-3.946 8.892 8.253 7.687-.36 1.9a45.166 45.166 0 0 0-.372 14.649l.266 1.918-8.622 7.26 3.496 9.077 11.264-.4 1.1 1.6a45.165 45.165 0 0 0 10.103 10.615l1.543 1.168-.965 11.237 8.894 3.946 7.685-8.254 1.9.362a45.14 45.14 0 0 0 14.65.371zm-59.92-20.316a.077.077 0 0 0-.019.002zm106.67-41.1l-.006.005zm-3.067-7.955zm-102.317-2.562l.008.001zm69.8-26.9l-.004.003zm-35.863-.894l.008.008zm16.285 90.683a35.88 35.88 0 1 1 35.48-41.431 3.507 3.507 0 0 1-6.93 1.086 29.145 29.145 0 0 0-1.593-5.941 28.86 28.86 0 1 0-4.202 28.176 3.508 3.508 0 0 1 5.528 4.32 36.03 36.03 0 0 1-28.283 13.79zm.306-20.377a15.42 15.42 0 1 1 12.576-24.314v-.001a15.415 15.415 0 0 1-12.576 24.316zm-.04-23.827a8.413 8.413 0 1 0 6.886 3.56v-.002a8.359 8.359 0 0 0-5.442-3.435 8.585 8.585 0 0 0-1.444-.123zm-99.15 8.587a2.884 2.884 0 0 1-.364-.022l-6.418-.795a3.064 3.064 0 0 1-2.628-2.41l-.826-3.893a26 26 0 0 1-4.799-2.718l-3.76 1.3a3.073 3.073 0 0 1-3.42-1.017l-3.97-5.1a3.065 3.065 0 0 1-.151-3.567l2.164-3.33a25.989 25.989 0 0 1-1.468-5.316l-3.573-1.748a3.069 3.069 0 0 1-1.698-3.138l.8-6.405a3.074 3.074 0 0 1 2.409-2.627l3.894-.828a26.032 26.032 0 0 1 2.718-4.798l-1.3-3.76a3.072 3.072 0 0 1 1.015-3.417l5.1-3.972a3.076 3.076 0 0 1 3.582-.14l3.316 2.154a25.973 25.973 0 0 1 5.316-1.467l1.748-3.575a3.096 3.096 0 0 1 3.15-1.697l6.392.8a3.08 3.08 0 0 1 2.63 2.41l.825 3.893a25.996 25.996 0 0 1 4.8 2.718l3.76-1.3a3.075 3.075 0 0 1 3.411 1.006l3.978 5.1a3.074 3.074 0 0 1 .15 3.567l-2.163 3.33a26.06 26.06 0 0 1 1.467 5.316l3.573 1.748a3.084 3.084 0 0 1 1.7 3.136l-.793 6.4a3.075 3.075 0 0 1-2.408 2.627l-3.895.827a25.992 25.992 0 0 1-2.718 4.798l1.3 3.76a3.075 3.075 0 0 1-1.012 3.416l-5.094 3.973a3.071 3.071 0 0 1-3.565.154l-3.333-2.167a26.053 26.053 0 0 1-5.315 1.468l-1.75 3.573a3.076 3.076 0 0 1-2.761 1.723zm-1.964-4.037l-.003.005zm-2.624-1.808l3.3.4 2.318-4.736 1.443-.155a20.85 20.85 0 0 0 6.5-1.795l1.318-.608 4.417 2.872 2.63-2.052-1.7-4.984.912-1.13a20.797 20.797 0 0 0 3.323-5.866l.502-1.363 5.157-1.093.4-3.3-4.737-2.318-.155-1.443a20.76 20.76 0 0 0-1.794-6.498l-.608-1.32 2.87-4.42-2.05-2.63-4.984 1.7-1.13-.9a20.797 20.797 0 0 0-5.867-3.323l-1.363-.502-1.094-5.157-3.3-.4-2.317 4.737-1.445.155a20.685 20.685 0 0 0-6.497 1.794l-1.318.608-4.42-2.872-2.627 2.05 1.7 4.984-.9 1.13a20.784 20.784 0 0 0-3.323 5.868l-.502 1.363-5.158 1.093-.4 3.3 4.736 2.317.155 1.444a20.797 20.797 0 0 0 1.794 6.5l.608 1.316-2.87 4.42 2.05 2.63 4.983-1.7 1.13.912a20.793 20.793 0 0 0 5.867 3.322l1.363.502zm-1.56-.194l.02.002zm-14.35-7.488l-.01.004zm-1.424-1.83l-.004.005zm-.12-2.545l.013.017zm-4.865-15.445l.014.007zm49.276-13.615l-.004.005zm-2.278-4.314zm-35.674-2.026l.028.018zm15.756-3.765l.02.004zm-.05 44.113a18.442 18.442 0 0 1-2.27-.14 18.205 18.205 0 1 1 16.587-29.265 18.373 18.373 0 0 1 2.047 3.29 2.631 2.631 0 0 1-4.739 2.289 12.991 12.991 0 0 0-1.457-2.342 12.937 12.937 0 1 0 1.867 12.635 2.63 2.63 0 0 1 4.908 1.894 18.22 18.22 0 0 1-16.943 11.639z" fill="#fff"/></svg>