<svg xmlns="http://www.w3.org/2000/svg" xmlns:xlink="http://www.w3.org/1999/xlink" viewBox="0 0 50 50" fill="#5B5B5B">
  <path d="M25 2C12.310489 2 2 12.309479 2 25C2 37.690521 12.310489 48 25 48C37.689511 48 48 37.690521 48 25C48 12.364375 37.775144 2.1041975 25.160156 2.015625 A 1.0001 1.0001 0 0 0 25 2 z M 25 4C36.609534 4 46 13.390466 46 25C46 36.609479 36.608489 46 25 46C13.391511 46 4 36.609479 4 25C4 13.390521 13.391511 4 25 4 z M 24.998047 8 A 1.0001 1.0001 0 0 0 24.78125 8.0214844C15.517754 8.1411321 8 15.709051 8 25C8 34.365144 15.632752 42 24.998047 42C34.36428 42 42 34.36537 42 25C42 15.708165 34.47826 8.1400731 25.212891 8.0214844 A 1.0001 1.0001 0 0 0 24.998047 8 z M 24.998047 10C25.296742 10 25.588422 10.027683 25.882812 10.044922L26.091797 14.113281 A 1.0001 1.0001 0 0 0 26.103516 14.373047L26.3125 18.449219 A 1.0001 1.0001 0 0 0 26.982422 19.34375C27.695686 19.593521 28.342345 19.96995 28.902344 20.451172 A 1.0001 1.0001 0 0 0 28.941406 20.480469 A 1.0001 1.0001 0 0 0 28.96875 20.501953 A 1.0001 1.0001 0 0 0 29.005859 20.527344 A 1.0001 1.0001 0 0 0 29.054688 20.556641 A 1.0001 1.0001 0 0 0 29.097656 20.580078 A 1.0001 1.0001 0 0 0 29.140625 20.601562 A 1.0001 1.0001 0 0 0 29.179688 20.619141 A 1.0001 1.0001 0 0 0 29.240234 20.640625 A 1.0001 1.0001 0 0 0 29.283203 20.652344 A 1.0001 1.0001 0 0 0 29.328125 20.664062 A 1.0001 1.0001 0 0 0 29.382812 20.675781 A 1.0001 1.0001 0 0 0 29.431641 20.683594 A 1.0001 1.0001 0 0 0 29.466797 20.6875 A 1.0001 1.0001 0 0 0 29.544922 20.691406 A 1.0001 1.0001 0 0 0 29.554688 20.691406 A 1.0001 1.0001 0 0 0 29.753906 20.671875 A 1.0001 1.0001 0 0 0 29.945312 20.613281 A 1.0001 1.0001 0 0 0 30.033203 20.570312L30.048828 20.5625L37.396484 16.5625C37.73424 17.057505 38.036851 17.576274 38.314453 18.111328L34.984375 20.339844 A 1.0001 1.0001 0 0 0 34.636719 20.574219L31.308594 22.800781 A 1.0001 1.0001 0 0 0 30.882812 23.826172C30.958747 24.208422 31 24.600376 31 25C31 25.399624 30.95816 25.792142 30.882812 26.175781 A 1.0001 1.0001 0 0 0 31.306641 27.197266L38.304688 31.910156C38.023599 32.449848 37.71536 32.971921 37.373047 33.470703L33.917969 31.570312 A 1.0001 1.0001 0 0 0 33.474609 31.326172L30.037109 29.433594 A 1.0001 1.0001 0 0 0 29.556641 29.308594 A 1.0001 1.0001 0 0 0 28.902344 29.550781C28.343829 30.030608 27.69309 30.408356 26.980469 30.658203 A 1.0001 1.0001 0 0 0 26.3125 31.548828L26.109375 35.523438 A 1.0001 1.0001 0 0 0 26.083984 35.992188 A 1.0001 1.0001 0 0 0 26.083984 35.994141L25.880859 39.955078C25.587107 39.972242 25.296084 40 24.998047 40C24.702678 40 24.414203 39.971942 24.123047 39.955078L23.742188 31.576172 A 1.0001 1.0001 0 0 0 23.066406 30.675781C22.317839 30.420549 21.638036 30.023007 21.054688 29.511719L20.394531 31.263672L19.919922 29.382812L16.394531 31.283203 A 1.0001 1.0001 0 0 0 16.091797 31.447266L12.546875 33.359375C12.215478 32.866752 11.922537 32.348101 11.650391 31.816406L18.679688 27.128906 A 1.0001 1.0001 0 0 0 19.107422 26.113281C19.038316 25.744998 19 25.374931 19 25C19 24.625069 19.03831 24.255002 19.107422 23.886719 A 1.0001 1.0001 0 0 0 18.679688 22.871094L15.294922 20.617188 A 1.0001 1.0001 0 0 0 15.029297 20.441406L11.648438 18.189453C11.921712 17.655016 12.215714 17.133657 12.548828 16.638672L19.919922 20.617188 A 1.0001 1.0001 0 0 0 21.052734 20.490234C21.636726 19.979241 22.318059 19.581329 23.066406 19.326172 A 1.0001 1.0001 0 0 0 23.742188 18.423828L23.923828 14.384766 A 1.0001 1.0001 0 0 0 23.9375 14.083984L24.119141 10.044922C24.411574 10.027909 24.701363 10 24.998047 10 z M 22.105469 10.285156L21.966797 13.390625C19.874995 13.935865 18.010181 15.033061 16.527344 16.513672L13.804688 15.044922C15.941544 12.643675 18.827308 10.926841 22.105469 10.285156 z M 27.898438 10.287109C31.141319 10.923591 34.001376 12.610877 36.130859 14.972656L33.414062 16.451172C31.946928 15.007164 30.111238 13.940364 28.058594 13.400391L27.898438 10.287109 z M 21.871094 15.505859L21.767578 17.808594C21.280844 18.028859 20.824885 18.293008 20.396484 18.601562L18.378906 17.513672C19.384128 16.623752 20.56786 15.935201 21.871094 15.505859 z M 28.166016 15.519531C29.427399 15.941002 30.57656 16.605739 31.558594 17.460938L29.550781 18.554688C29.152097 18.273312 28.730862 18.029689 28.283203 17.824219L28.166016 15.519531 z M 39.121094 19.980469C39.680512 21.5521 40 23.237062 40 25C40 26.771876 39.676178 28.464599 39.111328 30.042969L36.529297 28.302734C36.830087 27.25148 37 26.145741 37 25C37 23.859073 36.833317 22.756688 36.535156 21.708984L39.121094 19.980469 z M 10.849609 20.060547L13.443359 21.787109C13.159151 22.811376 13 23.88817 13 25C13 26.113348 13.158571 27.191413 13.443359 28.216797L10.851562 29.945312C10.309137 28.394774 10 26.735115 10 25C10 23.267061 10.308484 21.609432 10.849609 20.060547 z M 25 21C22.802706 21 21 22.802706 21 25C21 27.197294 22.802706 29 25 29C27.197294 29 29 27.197294 29 25C29 22.802706 27.197294 21 25 21 z M 34.767578 22.892578C34.913599 23.572361 35 24.274221 35 25C35 25.728914 34.914761 26.434894 34.767578 27.117188L32.914062 25.869141C32.946247 25.580244 33 25.298733 33 25C33 24.702301 32.946282 24.421187 32.914062 24.132812L34.767578 22.892578 z M 15.214844 22.96875L17.076172 24.207031C17.048322 24.47088 17 24.725196 17 25C17 25.275474 17.048192 25.530458 17.076172 25.794922L15.214844 27.037109C15.078918 26.379598 15 25.700118 15 25C15 24.301886 15.079164 23.624808 15.214844 22.96875 z M 25 23C26.116414 23 27 23.883586 27 25C27 26.116414 26.116414 27 25 27C23.883586 27 23 26.116414 23 25C23 23.883586 23.883586 23 25 23 z M 20.398438 31.398438C20.826341 31.706713 21.281823 31.96953 21.767578 32.189453L21.871094 34.492188C20.568865 34.063578 19.387448 33.37499 18.382812 32.486328L20.398438 31.398438 z M 29.546875 31.447266L31.546875 32.548828C30.567299 33.399595 29.423067 34.060805 28.166016 34.480469L28.283203 32.175781C28.729596 31.970838 29.149038 31.727672 29.546875 31.447266 z M 16.525391 33.488281C18.008214 34.969014 19.876832 36.060619 21.96875 36.605469L22.109375 39.714844C18.830157 39.073828 15.94227 37.358631 13.804688 34.957031L16.525391 33.488281 z M 33.396484 33.564453L36.103516 35.054688C33.976219 37.401935 31.127119 39.081263 27.896484 39.714844L28.056641 36.599609C30.102247 36.061849 31.931966 35.000923 33.396484 33.564453 z" fill="#5B5B5B" />
</svg>