<svg xmlns="http://www.w3.org/2000/svg" xmlns:xlink="http://www.w3.org/1999/xlink" viewBox="0 0 40 40"><path fill="#dff0fe" d="M20,34.307c-0.386,0-0.785-0.019-1.21-0.056l-0.884-8.189l-0.28-0.111 c-0.569-0.227-1.104-0.537-1.591-0.92l-0.236-0.187l-7.526,3.326c-0.474-0.677-0.883-1.378-1.221-2.092l6.655-4.862l-0.043-0.298 c-0.051-0.348-0.074-0.64-0.074-0.917c0-0.276,0.024-0.576,0.074-0.916l0.045-0.299l-6.656-4.863 c0.339-0.715,0.747-1.417,1.221-2.092l7.526,3.326l0.236-0.187c0.486-0.384,1.021-0.693,1.591-0.92l0.28-0.111l0.884-8.189 C19.215,5.711,19.614,5.693,20,5.693s0.785,0.019,1.21,0.056l0.884,8.189l0.28,0.111c0.569,0.227,1.104,0.537,1.591,0.92 l0.236,0.187l7.526-3.326c0.474,0.677,0.883,1.378,1.221,2.092l-6.655,4.862l0.043,0.298c0.051,0.348,0.074,0.64,0.074,0.917 c0,0.276-0.024,0.576-0.074,0.916l-0.045,0.299l6.656,4.863c-0.339,0.715-0.747,1.417-1.221,2.092L24.2,24.843l-0.236,0.187 c-0.486,0.384-1.021,0.693-1.591,0.92l-0.28,0.111l-0.884,8.189C20.785,34.289,20.386,34.307,20,34.307z"/><path fill="#4788c7" d="M20,6.193c0.245,0,0.496,0.008,0.758,0.024l0.806,7.476l0.065,0.599l0.56,0.223 c0.526,0.21,1.019,0.495,1.466,0.848l0.473,0.374l0.551-0.244l6.87-3.036c0.283,0.429,0.539,0.867,0.766,1.31l-6.073,4.437 l-0.485,0.354l0.085,0.595C25.888,19.481,25.91,19.75,25.91,20c0,0.252-0.022,0.521-0.069,0.844l-0.087,0.596l0.487,0.356 l6.073,4.437c-0.227,0.444-0.483,0.882-0.765,1.31l-6.87-3.036l-0.551-0.244l-0.473,0.374c-0.447,0.353-0.94,0.638-1.466,0.848 l-0.56,0.223l-0.065,0.599l-0.806,7.476c-0.261,0.016-0.513,0.024-0.757,0.024c-0.245,0-0.496-0.008-0.758-0.024l-0.806-7.476 l-0.065-0.599l-0.56-0.223c-0.526-0.21-1.019-0.495-1.466-0.848l-0.473-0.374l-0.551,0.244l-6.87,3.036 c-0.283-0.429-0.539-0.866-0.766-1.31l6.073-4.437l0.485-0.354l-0.085-0.595C14.112,20.519,14.09,20.25,14.09,20 c0-0.252,0.022-0.521,0.069-0.844l0.087-0.596l-0.487-0.356l-6.073-4.437c0.227-0.444,0.483-0.881,0.765-1.31l6.87,3.036 l0.551,0.244l0.473-0.374c0.447-0.353,0.94-0.638,1.466-0.848l0.559-0.223l0.065-0.599l0.806-7.476 C19.504,6.201,19.755,6.193,20,6.193 M20,5.193c-0.563,0-1.116,0.038-1.663,0.1l-0.894,8.293c-0.622,0.248-1.198,0.583-1.716,0.992 l-7.622-3.368c-0.658,0.889-1.227,1.849-1.675,2.877l6.74,4.925c-0.047,0.324-0.08,0.653-0.08,0.989s0.033,0.665,0.079,0.989 l-6.74,4.925c0.448,1.028,1.017,1.986,1.675,2.877l7.622-3.368c0.517,0.409,1.094,0.744,1.716,0.992l0.894,8.293 c0.548,0.061,1.102,0.1,1.664,0.1s1.116-0.038,1.663-0.1l0.894-8.293c0.622-0.248,1.198-0.583,1.716-0.992l7.622,3.368 c0.658-0.889,1.227-1.849,1.675-2.877l-6.74-4.925c0.047-0.324,0.08-0.652,0.08-0.989s-0.033-0.665-0.079-0.989l6.74-4.925 c-0.448-1.028-1.017-1.986-1.675-2.877l-7.622,3.368c-0.517-0.409-1.094-0.744-1.716-0.992l-0.894-8.293 C21.116,5.231,20.563,5.193,20,5.193L20,5.193z"/><path fill="#98ccfd" d="M20 17A3 3 0 1 0 20 23A3 3 0 1 0 20 17Z"/><path fill="#b6dcfe" d="M20,38.5C9.799,38.5,1.5,30.201,1.5,20S9.799,1.5,20,1.5S38.5,9.799,38.5,20S30.201,38.5,20,38.5z M20,7.5C13.107,7.5,7.5,13.107,7.5,20S13.107,32.5,20,32.5S32.5,26.893,32.5,20S26.893,7.5,20,7.5z"/><path fill="#4788c7" d="M20,2c9.925,0,18,8.075,18,18s-8.075,18-18,18S2,29.925,2,20S10.075,2,20,2 M20,33 c7.168,0,13-5.832,13-13S27.168,7,20,7S7,12.832,7,20S12.832,33,20,33 M20,1C9.507,1,1,9.507,1,20s8.507,19,19,19s19-8.507,19-19 S30.493,1,20,1L20,1z M20,32c-6.627,0-12-5.373-12-12c0-6.627,5.373-12,12-12s12,5.373,12,12C32,26.627,26.627,32,20,32L20,32z"/><path fill="none" stroke="#4788c7" stroke-dasharray="4,5" stroke-width="1.6" d="M20 2.5A17.5 17.5 0 1 0 20 37.5A17.5 17.5 0 1 0 20 2.5Z" transform="rotate(-45.001 20 20)"/></svg>